<mxfile host="app.diagrams.net" agent="Mozilla/5.0 (Macintosh; Intel Mac OS X 10_15_7) AppleWebKit/537.36 (KHTML, like Gecko) Chrome/141.0.0.0 Safari/537.36" version="28.2.6">
  <diagram name="Page-1" id="TROxGRHwthohwfCNFghT">
    <mxGraphModel dx="1025" dy="741" grid="1" gridSize="10" guides="1" tooltips="1" connect="1" arrows="1" fold="1" page="1" pageScale="1" pageWidth="1100" pageHeight="850" math="0" shadow="0">
      <root>
        <mxCell id="0" />
        <mxCell id="1" parent="0" />
        <mxCell id="tunja0gr6lBs-Br6g-3u-1" value="Bedrock AgentCore" style="rounded=1;whiteSpace=wrap;html=1;" vertex="1" parent="1">
          <mxGeometry x="740" y="240" width="120" height="60" as="geometry" />
        </mxCell>
        <mxCell id="tunja0gr6lBs-Br6g-3u-2" value="Monolithic App&lt;br&gt;&lt;br&gt;Elastic Kubernetes Service" style="rounded=1;whiteSpace=wrap;html=1;" vertex="1" parent="1">
          <mxGeometry x="320" y="240" width="390" height="60" as="geometry" />
        </mxCell>
        <mxCell id="tunja0gr6lBs-Br6g-3u-3" value="Transactional DB&lt;br&gt;DynamoDB" style="shape=cylinder3;whiteSpace=wrap;html=1;boundedLbl=1;backgroundOutline=1;size=15;" vertex="1" parent="1">
          <mxGeometry x="320" y="360" width="110" height="80" as="geometry" />
        </mxCell>
        <mxCell id="tunja0gr6lBs-Br6g-3u-10" style="edgeStyle=orthogonalEdgeStyle;rounded=0;orthogonalLoop=1;jettySize=auto;html=1;exitX=1;exitY=0.5;exitDx=0;exitDy=0;exitPerimeter=0;entryX=0;entryY=0.5;entryDx=0;entryDy=0;" edge="1" parent="1" source="tunja0gr6lBs-Br6g-3u-5" target="tunja0gr6lBs-Br6g-3u-6">
          <mxGeometry relative="1" as="geometry" />
        </mxCell>
        <mxCell id="tunja0gr6lBs-Br6g-3u-5" value="Simple Queue Service" style="shape=cylinder3;whiteSpace=wrap;html=1;boundedLbl=1;backgroundOutline=1;size=15;" vertex="1" parent="1">
          <mxGeometry x="469" y="360" width="90" height="80" as="geometry" />
        </mxCell>
        <mxCell id="tunja0gr6lBs-Br6g-3u-13" style="edgeStyle=orthogonalEdgeStyle;rounded=0;orthogonalLoop=1;jettySize=auto;html=1;exitX=0.5;exitY=0;exitDx=0;exitDy=0;entryX=0.846;entryY=1.033;entryDx=0;entryDy=0;entryPerimeter=0;" edge="1" parent="1" source="tunja0gr6lBs-Br6g-3u-6" target="tunja0gr6lBs-Br6g-3u-2">
          <mxGeometry relative="1" as="geometry" />
        </mxCell>
        <mxCell id="tunja0gr6lBs-Br6g-3u-6" value="EventBridge" style="rounded=1;whiteSpace=wrap;html=1;" vertex="1" parent="1">
          <mxGeometry x="590" y="370" width="120" height="60" as="geometry" />
        </mxCell>
        <mxCell id="tunja0gr6lBs-Br6g-3u-7" value="Simple Notification Service" style="shape=cylinder3;whiteSpace=wrap;html=1;boundedLbl=1;backgroundOutline=1;size=15;" vertex="1" parent="1">
          <mxGeometry x="605" y="492" width="90" height="80" as="geometry" />
        </mxCell>
        <mxCell id="tunja0gr6lBs-Br6g-3u-8" style="edgeStyle=orthogonalEdgeStyle;rounded=0;orthogonalLoop=1;jettySize=auto;html=1;entryX=0.5;entryY=0;entryDx=0;entryDy=0;entryPerimeter=0;" edge="1" parent="1" target="tunja0gr6lBs-Br6g-3u-3">
          <mxGeometry relative="1" as="geometry">
            <mxPoint x="375" y="300" as="sourcePoint" />
          </mxGeometry>
        </mxCell>
        <mxCell id="tunja0gr6lBs-Br6g-3u-9" style="edgeStyle=orthogonalEdgeStyle;rounded=0;orthogonalLoop=1;jettySize=auto;html=1;exitX=0.395;exitY=1.017;exitDx=0;exitDy=0;entryX=0.5;entryY=0;entryDx=0;entryDy=0;entryPerimeter=0;exitPerimeter=0;" edge="1" parent="1" target="tunja0gr6lBs-Br6g-3u-5">
          <mxGeometry relative="1" as="geometry">
            <mxPoint x="513.05" y="301.02" as="sourcePoint" />
          </mxGeometry>
        </mxCell>
        <mxCell id="tunja0gr6lBs-Br6g-3u-11" style="edgeStyle=orthogonalEdgeStyle;rounded=0;orthogonalLoop=1;jettySize=auto;html=1;exitX=0.5;exitY=1;exitDx=0;exitDy=0;entryX=0.5;entryY=0;entryDx=0;entryDy=0;entryPerimeter=0;startArrow=classic;startFill=1;" edge="1" parent="1" source="tunja0gr6lBs-Br6g-3u-6" target="tunja0gr6lBs-Br6g-3u-7">
          <mxGeometry relative="1" as="geometry" />
        </mxCell>
        <mxCell id="tunja0gr6lBs-Br6g-3u-12" value="Publish &amp;amp; Subscribe" style="edgeLabel;html=1;align=center;verticalAlign=middle;resizable=0;points=[];" vertex="1" connectable="0" parent="tunja0gr6lBs-Br6g-3u-11">
          <mxGeometry x="-0.5714" y="1" relative="1" as="geometry">
            <mxPoint y="19" as="offset" />
          </mxGeometry>
        </mxCell>
        <mxCell id="tunja0gr6lBs-Br6g-3u-22" style="edgeStyle=orthogonalEdgeStyle;rounded=0;orthogonalLoop=1;jettySize=auto;html=1;exitX=0.5;exitY=1;exitDx=0;exitDy=0;entryX=0.5;entryY=0;entryDx=0;entryDy=0;" edge="1" parent="1" source="tunja0gr6lBs-Br6g-3u-15" target="tunja0gr6lBs-Br6g-3u-16">
          <mxGeometry relative="1" as="geometry" />
        </mxCell>
        <mxCell id="tunja0gr6lBs-Br6g-3u-15" value="CloudFront" style="rounded=1;whiteSpace=wrap;html=1;" vertex="1" parent="1">
          <mxGeometry x="320" y="130" width="120" height="30" as="geometry" />
        </mxCell>
        <mxCell id="tunja0gr6lBs-Br6g-3u-16" value="Admin UI&lt;br&gt;Angular&amp;nbsp;" style="rounded=1;whiteSpace=wrap;html=1;" vertex="1" parent="1">
          <mxGeometry x="320" y="180" width="120" height="40" as="geometry" />
        </mxCell>
        <mxCell id="tunja0gr6lBs-Br6g-3u-17" value="Android App&lt;br&gt;Kotlin" style="rounded=1;whiteSpace=wrap;html=1;" vertex="1" parent="1">
          <mxGeometry x="510" y="130" width="90" height="40" as="geometry" />
        </mxCell>
        <mxCell id="tunja0gr6lBs-Br6g-3u-18" value="IOS App&lt;br&gt;Swift" style="rounded=1;whiteSpace=wrap;html=1;" vertex="1" parent="1">
          <mxGeometry x="620" y="130" width="90" height="40" as="geometry" />
        </mxCell>
        <mxCell id="tunja0gr6lBs-Br6g-3u-23" style="edgeStyle=orthogonalEdgeStyle;rounded=0;orthogonalLoop=1;jettySize=auto;html=1;exitX=0.5;exitY=1;exitDx=0;exitDy=0;entryX=0.159;entryY=0.017;entryDx=0;entryDy=0;entryPerimeter=0;" edge="1" parent="1" source="tunja0gr6lBs-Br6g-3u-16" target="tunja0gr6lBs-Br6g-3u-2">
          <mxGeometry relative="1" as="geometry" />
        </mxCell>
        <mxCell id="tunja0gr6lBs-Br6g-3u-24" style="edgeStyle=orthogonalEdgeStyle;rounded=0;orthogonalLoop=1;jettySize=auto;html=1;exitX=0.5;exitY=1;exitDx=0;exitDy=0;entryX=0.603;entryY=0.033;entryDx=0;entryDy=0;entryPerimeter=0;" edge="1" parent="1" source="tunja0gr6lBs-Br6g-3u-17" target="tunja0gr6lBs-Br6g-3u-2">
          <mxGeometry relative="1" as="geometry" />
        </mxCell>
        <mxCell id="tunja0gr6lBs-Br6g-3u-25" style="edgeStyle=orthogonalEdgeStyle;rounded=0;orthogonalLoop=1;jettySize=auto;html=1;exitX=0.5;exitY=1;exitDx=0;exitDy=0;entryX=0.885;entryY=-0.017;entryDx=0;entryDy=0;entryPerimeter=0;" edge="1" parent="1" source="tunja0gr6lBs-Br6g-3u-18" target="tunja0gr6lBs-Br6g-3u-2">
          <mxGeometry relative="1" as="geometry" />
        </mxCell>
        <mxCell id="tunja0gr6lBs-Br6g-3u-26" value="Tableau" style="rounded=1;whiteSpace=wrap;html=1;" vertex="1" parent="1">
          <mxGeometry x="160" y="240" width="120" height="60" as="geometry" />
        </mxCell>
        <mxCell id="tunja0gr6lBs-Br6g-3u-27" value="Analytical DB&lt;br&gt;PostgreSQL" style="shape=cylinder3;whiteSpace=wrap;html=1;boundedLbl=1;backgroundOutline=1;size=15;" vertex="1" parent="1">
          <mxGeometry x="167.5" y="360" width="105" height="80" as="geometry" />
        </mxCell>
        <mxCell id="tunja0gr6lBs-Br6g-3u-28" style="edgeStyle=orthogonalEdgeStyle;rounded=0;orthogonalLoop=1;jettySize=auto;html=1;exitX=0.5;exitY=1;exitDx=0;exitDy=0;entryX=0.5;entryY=0;entryDx=0;entryDy=0;entryPerimeter=0;" edge="1" parent="1" source="tunja0gr6lBs-Br6g-3u-26" target="tunja0gr6lBs-Br6g-3u-27">
          <mxGeometry relative="1" as="geometry" />
        </mxCell>
      </root>
    </mxGraphModel>
  </diagram>
</mxfile>
